# xmcd
#
# Track frame offsets:
#	182
#	13892
#	28847
#	41882
#	55657
#	68487
#	82062
#	95610
#	107792
#	122607
#	133105
#	147297
#	161475
#	174357
#	188170
#	200947
#	214290
#	228132
#
# Disc length: 3210 seconds
#
# Revision: 1667592765
# Processed by: cddbd v1.5.2PL0 Copyright (c) Steve Scherf et al.
# Submitted via: EZCDAudioConverter 7.1.0.1
#
DISCID=060c8812
DTITLE=Tampa Red - The Blues [CD2]
DYEAR=2004
DGENRE=Blues
TTITLE0=Seminole Blues
TTITLE1=Love Her With a Feeling
TTITLE2=Forgive Me Please
TTITLE3=Blues for My Baby
TTITLE4=Hellish That Old Feeling
TTITLE5=She Got the Best in Town
TTITLE6=You Say It's Love
TTITLE7=Bessemer Blues (T for Texas)
TTITLE8=Sad Letter Blues
TTITLE9=Sweet Mellow Woman Blues
TTITLE10=Anna Lou Blues
TTITLE11=Don't You Lie to Me
TTITLE12=It Hurts Me Too
TTITLE13=Noonday Hour Blues
TTITLE14=Don't Deal With the Devil
TTITLE15=Lula Mae
TTITLE16=Crying Won't Help You
TTITLE17=Poor Stranger Blues
EXTD=
EXTT0=
EXTT1=
EXTT2=
EXTT3=
EXTT4=
EXTT5=
EXTT6=
EXTT7=
EXTT8=
EXTT9=
EXTT10=
EXTT11=
EXTT12=
EXTT13=
EXTT14=
EXTT15=
EXTT16=
EXTT17=
PLAYORDER=
